# xmcd
#
# Track frame offsets:
#	150
#	17955
#	45953
#	60048
#	92638
#	116400
#	147108
#	167723
#	191655
#	214683
#	229360
#	251710
#	268640
#	296550
#	311738
#
# Disc length: 4331 seconds
#
# Revision: 3
# Processed by: cddbd v1.5.1PL0 Copyright (c) Steve Scherf et al.
# Submitted via: MusicManager 7.0.6.0 
#
DISCID=d110e90f
DTITLE=Various Artist - Rattlesnake Guitar - The Music Of Peter Green [CD1]
DYEAR=1997
DGENRE=Blues
TTITLE0=Larry McCray - Black Magic Woman
TTITLE1=Dave Peverett and Rod Price - Love That Burns
TTITLE2=Savoy Brown with Kim Simmonds - Stop Messin' 'Round
TTITLE3=Snowy White - Snowy White/ Looking For Somebody
TTITLE4=Luther Grosvenor, Mike Kellie and Jess Roden - Crying Won't Bring You Back
TTITLE5=Rory Gallagher - Leaving Town Blues
TTITLE6=Dave Peverett and Rod Price - If You Be My Baby
TTITLE7=Harvey Mandel and Wilbur Bascomb - Ramblin' Pony
TTITLE8=Arthur Brown - The Green Manalishi
TTITLE9=Ken Hensley - Hellhound On My Trail
TTITLE10=Larry Mitchell and Jay Astron - I Loved Another Woman
TTITLE11=Mick Abrahams - The Same Way
TTITLE12=Top Topham and Jim McCarty - Drifting
TTITLE13=Clas Yngstrom - The Supernatural
TTITLE14=Ian Anderson - Man Of The World
EXTD=
EXTT0=Larry McCray
EXTT1=
EXTT2=
EXTT3=
EXTT4=
EXTT5=
EXTT6=
EXTT7=
EXTT8=
EXTT9=
EXTT10=
EXTT11=
EXTT12=
EXTT13=
EXTT14=
PLAYORDER=
